<svg width="324" height="57" viewBox="0 0 324 57" fill="none" xmlns="http://www.w3.org/2000/svg">
<path d="M85.3963 43.89C83.3789 43.89 81.5549 43.5445 79.9243 42.8536C78.3214 42.1627 77.0502 41.1678 76.1105 39.8689C75.1709 38.57 74.6872 37.0362 74.6596 35.2675H80.8778C80.9607 36.4558 81.3752 37.3955 82.1214 38.0864C82.8952 38.7773 83.9454 39.1227 85.272 39.1227C86.6262 39.1227 87.6902 38.8049 88.464 38.1693C89.2378 37.506 89.6247 36.6493 89.6247 35.5991C89.6247 34.7424 89.3622 34.0376 88.8371 33.4849C88.312 32.9322 87.6487 32.5038 86.8472 32.1998C86.0734 31.8682 84.9956 31.5089 83.6138 31.122C81.7345 30.5693 80.2007 30.0304 79.0123 29.5053C77.8516 28.9525 76.8429 28.1373 75.9862 27.0595C75.1571 25.954 74.7425 24.4893 74.7425 22.6653C74.7425 20.9518 75.1709 19.4595 76.0276 18.1882C76.8843 16.9169 78.0865 15.9496 79.6342 15.2864C81.1818 14.5955 82.9505 14.25 84.9403 14.25C87.9251 14.25 90.3432 14.9824 92.1949 16.4471C94.0742 17.8842 95.1105 19.9016 95.304 22.4995H88.92C88.8647 21.5045 88.4363 20.6893 87.6349 20.0536C86.8611 19.3904 85.8247 19.0587 84.5258 19.0587C83.3927 19.0587 82.4807 19.3489 81.7898 19.9293C81.1265 20.5096 80.7949 21.3525 80.7949 22.458C80.7949 23.2318 81.0436 23.8813 81.5411 24.4064C82.0662 24.9038 82.7018 25.3184 83.448 25.65C84.2218 25.954 85.2996 26.3133 86.6814 26.7278C88.5607 27.2805 90.0945 27.8333 91.2829 28.386C92.4712 28.9387 93.4938 29.7678 94.3505 30.8733C95.2072 31.9787 95.6356 33.4296 95.6356 35.226C95.6356 36.7736 95.2349 38.2107 94.4334 39.5373C93.632 40.8638 92.4574 41.9278 90.9098 42.7293C89.3622 43.5031 87.5243 43.89 85.3963 43.89Z" fill="white"/>
<path d="M107.424 25.4013V36.5111C107.424 37.2849 107.604 37.8515 107.963 38.2107C108.35 38.5424 108.986 38.7082 109.87 38.7082H112.565V43.5998H108.917C104.025 43.5998 101.579 41.2231 101.579 36.4696V25.4013H98.8432V20.634H101.579V14.9547H107.424V20.634H112.565V25.4013H107.424Z" fill="white"/>
<path d="M115.247 32.034C115.247 29.7125 115.703 27.6536 116.615 25.8573C117.554 24.0609 118.812 22.6791 120.387 21.7118C121.99 20.7445 123.772 20.2609 125.735 20.2609C127.448 20.2609 128.94 20.6064 130.212 21.2973C131.511 21.9882 132.547 22.8587 133.321 23.9089V20.634H139.166V43.5998H133.321V40.242C132.575 41.3198 131.538 42.218 130.212 42.9365C128.913 43.6275 127.407 43.9729 125.693 43.9729C123.759 43.9729 121.99 43.4755 120.387 42.4805C118.812 41.4856 117.554 40.09 116.615 38.2936C115.703 36.4696 115.247 34.3831 115.247 32.034ZM133.321 32.1169C133.321 30.7075 133.044 29.5053 132.492 28.5104C131.939 27.4878 131.193 26.714 130.253 26.1889C129.313 25.6362 128.305 25.3598 127.227 25.3598C126.149 25.3598 125.154 25.6224 124.242 26.1475C123.33 26.6725 122.584 27.4464 122.004 28.4689C121.451 29.4638 121.175 30.6522 121.175 32.034C121.175 33.4158 121.451 34.6318 122.004 35.682C122.584 36.7045 123.33 37.4922 124.242 38.0449C125.182 38.5976 126.177 38.874 127.227 38.874C128.305 38.874 129.313 38.6115 130.253 38.0864C131.193 37.5336 131.939 36.7598 132.492 35.7649C133.044 34.7424 133.321 33.5264 133.321 32.1169Z" fill="white"/>
<path d="M151.591 25.4013V36.5111C151.591 37.2849 151.771 37.8515 152.13 38.2107C152.517 38.5424 153.153 38.7082 154.037 38.7082H156.732V43.5998H153.084C148.192 43.5998 145.746 41.2231 145.746 36.4696V25.4013H143.01V20.634H145.746V14.9547H151.591V20.634H156.732V25.4013H151.591Z" fill="white"/>
<path d="M182.587 20.634V43.5998H176.741V40.698C175.995 41.6929 175.014 42.4805 173.798 43.0609C172.61 43.6136 171.311 43.89 169.901 43.89C168.105 43.89 166.516 43.5169 165.134 42.7707C163.752 41.9969 162.661 40.8776 161.859 39.4129C161.085 37.9205 160.699 36.1518 160.699 34.1067V20.634H166.502V33.2776C166.502 35.1016 166.958 36.5111 167.87 37.506C168.782 38.4733 170.026 38.9569 171.601 38.9569C173.204 38.9569 174.461 38.4733 175.373 37.506C176.285 36.5111 176.741 35.1016 176.741 33.2776V20.634H182.587Z" fill="white"/>
<path d="M197.101 43.9729C195.222 43.9729 193.536 43.6413 192.044 42.978C190.551 42.2871 189.363 41.3613 188.479 40.2005C187.622 39.0398 187.152 37.7547 187.069 36.3453H192.914C193.025 37.2296 193.453 37.962 194.199 38.5424C194.973 39.1227 195.927 39.4129 197.06 39.4129C198.165 39.4129 199.022 39.1918 199.63 38.7496C200.265 38.3075 200.583 37.7409 200.583 37.05C200.583 36.3038 200.196 35.7511 199.423 35.3918C198.676 35.0049 197.474 34.5904 195.816 34.1482C194.103 33.7336 192.693 33.3053 191.588 32.8631C190.51 32.4209 189.57 31.7438 188.769 30.8318C187.995 29.9198 187.608 28.69 187.608 27.1424C187.608 25.8711 187.967 24.7104 188.686 23.6602C189.432 22.61 190.482 21.7809 191.836 21.1729C193.218 20.5649 194.835 20.2609 196.687 20.2609C199.423 20.2609 201.606 20.9518 203.236 22.3336C204.867 23.6878 205.765 25.5256 205.931 27.8471H200.376C200.293 26.9351 199.906 26.2165 199.215 25.6915C198.552 25.1387 197.654 24.8624 196.521 24.8624C195.471 24.8624 194.655 25.0558 194.075 25.4427C193.522 25.8296 193.246 26.3685 193.246 27.0595C193.246 27.8333 193.633 28.4275 194.407 28.842C195.18 29.2289 196.383 29.6296 198.013 30.0442C199.671 30.4587 201.039 30.8871 202.117 31.3293C203.195 31.7715 204.121 32.4624 204.895 33.402C205.696 34.314 206.111 35.53 206.138 37.05C206.138 38.3765 205.765 39.5649 205.019 40.6151C204.3 41.6653 203.25 42.4944 201.868 43.1024C200.514 43.6827 198.925 43.9729 197.101 43.9729Z" fill="white"/>
<path d="M241.88 23.6187C241.88 25.1664 241.507 26.6173 240.761 27.9715C240.043 29.3256 238.896 30.4173 237.32 31.2464C235.773 32.0755 233.811 32.49 231.434 32.49H226.584V43.5998H220.78V14.6645H231.434C233.672 14.6645 235.579 15.0515 237.155 15.8253C238.73 16.5991 239.904 17.6631 240.678 19.0173C241.48 20.3715 241.88 21.9053 241.88 23.6187ZM231.185 27.8056C232.788 27.8056 233.976 27.4464 234.75 26.7278C235.524 25.9816 235.911 24.9453 235.911 23.6187C235.911 20.7998 234.336 19.3904 231.185 19.3904H226.584V27.8056H231.185Z" fill="white"/>
<path d="M244.509 32.034C244.509 29.7125 244.965 27.6536 245.877 25.8573C246.816 24.0609 248.074 22.6791 249.649 21.7118C251.252 20.7445 253.034 20.2609 254.997 20.2609C256.71 20.2609 258.202 20.6064 259.474 21.2973C260.773 21.9882 261.809 22.8587 262.583 23.9089V20.634H268.428V43.5998H262.583V40.242C261.837 41.3198 260.8 42.218 259.474 42.9365C258.175 43.6275 256.669 43.9729 254.955 43.9729C253.021 43.9729 251.252 43.4755 249.649 42.4805C248.074 41.4856 246.816 40.09 245.877 38.2936C244.965 36.4696 244.509 34.3831 244.509 32.034ZM262.583 32.1169C262.583 30.7075 262.306 29.5053 261.754 28.5104C261.201 27.4878 260.455 26.714 259.515 26.1889C258.575 25.6362 257.567 25.3598 256.489 25.3598C255.411 25.3598 254.416 25.6224 253.504 26.1475C252.592 26.6725 251.846 27.4464 251.266 28.4689C250.713 29.4638 250.437 30.6522 250.437 32.034C250.437 33.4158 250.713 34.6318 251.266 35.682C251.846 36.7045 252.592 37.4922 253.504 38.0449C254.444 38.5976 255.439 38.874 256.489 38.874C257.567 38.874 258.575 38.6115 259.515 38.0864C260.455 37.5336 261.201 36.7598 261.754 35.7649C262.306 34.7424 262.583 33.5264 262.583 32.1169Z" fill="white"/>
<path d="M283.092 20.2609C284.805 20.2609 286.311 20.6064 287.61 21.2973C288.909 21.9605 289.932 22.8311 290.678 23.9089V20.634H296.523V43.7656C296.523 45.8936 296.095 47.7867 295.238 49.4449C294.381 51.1307 293.096 52.4573 291.383 53.4245C289.669 54.4195 287.596 54.9169 285.164 54.9169C281.903 54.9169 279.223 54.1569 277.122 52.6369C275.05 51.1169 273.875 49.0442 273.599 46.4187H279.361C279.665 47.4689 280.314 48.298 281.309 48.906C282.332 49.5416 283.562 49.8595 284.999 49.8595C286.684 49.8595 288.052 49.3482 289.103 48.3256C290.153 47.3307 290.678 45.8107 290.678 43.7656V40.2005C289.932 41.2784 288.895 42.1765 287.569 42.8951C286.27 43.6136 284.778 43.9729 283.092 43.9729C281.157 43.9729 279.388 43.4755 277.786 42.4805C276.183 41.4856 274.911 40.09 273.972 38.2936C273.06 36.4696 272.604 34.3831 272.604 32.034C272.604 29.7125 273.06 27.6536 273.972 25.8573C274.911 24.0609 276.169 22.6791 277.744 21.7118C279.347 20.7445 281.13 20.2609 283.092 20.2609ZM290.678 32.1169C290.678 30.7075 290.402 29.5053 289.849 28.5104C289.296 27.4878 288.55 26.714 287.61 26.1889C286.671 25.6362 285.662 25.3598 284.584 25.3598C283.506 25.3598 282.511 25.6224 281.599 26.1475C280.687 26.6725 279.941 27.4464 279.361 28.4689C278.808 29.4638 278.532 30.6522 278.532 32.034C278.532 33.4158 278.808 34.6318 279.361 35.682C279.941 36.7045 280.687 37.4922 281.599 38.0449C282.539 38.5976 283.534 38.874 284.584 38.874C285.662 38.874 286.671 38.6115 287.61 38.0864C288.55 37.5336 289.296 36.7598 289.849 35.7649C290.402 34.7424 290.678 33.5264 290.678 32.1169Z" fill="white"/>
<path d="M323.54 31.6195C323.54 32.4485 323.485 33.1947 323.375 33.858H306.585C306.724 35.5162 307.304 36.8151 308.327 37.7547C309.349 38.6944 310.607 39.1642 312.099 39.1642C314.255 39.1642 315.788 38.2384 316.7 36.3867H322.96C322.297 38.5976 321.025 40.4216 319.146 41.8587C317.267 43.2682 314.959 43.9729 312.223 43.9729C310.012 43.9729 308.023 43.4893 306.254 42.522C304.513 41.5271 303.145 40.1315 302.15 38.3351C301.183 36.5387 300.699 34.466 300.699 32.1169C300.699 29.7402 301.183 27.6536 302.15 25.8573C303.117 24.0609 304.471 22.6791 306.212 21.7118C307.953 20.7445 309.957 20.2609 312.223 20.2609C314.407 20.2609 316.355 20.7307 318.068 21.6704C319.809 22.61 321.15 23.9504 322.089 25.6915C323.057 27.4049 323.54 29.3809 323.54 31.6195ZM317.529 29.9613C317.502 28.4689 316.963 27.2805 315.913 26.3962C314.863 25.4842 313.577 25.0282 312.057 25.0282C310.62 25.0282 309.404 25.4704 308.409 26.3547C307.442 27.2115 306.848 28.4136 306.627 29.9613H317.529Z" fill="white"/>
<circle cx="28.5" cy="28.5" r="28.5" fill="white" fill-opacity="0.1"/>
<circle cx="28.5" cy="28.5" r="12.9545" fill="white"/>
</svg>
