<svg width="660" height="200" viewBox="0 0 660 200" fill="none" xmlns="http://www.w3.org/2000/svg">
<rect width="660" height="200" fill="#1E3FD1"/>
<path d="M253.396 115.89C251.379 115.89 249.555 115.545 247.924 114.854C246.321 114.163 245.05 113.168 244.111 111.869C243.171 110.57 242.687 109.036 242.66 107.267H248.878C248.961 108.456 249.375 109.395 250.121 110.086C250.895 110.777 251.945 111.123 253.272 111.123C254.626 111.123 255.69 110.805 256.464 110.169C257.238 109.506 257.625 108.649 257.625 107.599C257.625 106.742 257.362 106.038 256.837 105.485C256.312 104.932 255.649 104.504 254.847 104.2C254.073 103.868 252.996 103.509 251.614 103.122C249.735 102.569 248.201 102.03 247.012 101.505C245.852 100.953 244.843 100.137 243.986 99.0595C243.157 97.954 242.743 96.4893 242.743 94.6653C242.743 92.9518 243.171 91.4595 244.028 90.1882C244.884 88.9169 246.087 87.9496 247.634 87.2864C249.182 86.5955 250.951 86.25 252.94 86.25C255.925 86.25 258.343 86.9824 260.195 88.4471C262.074 89.8842 263.111 91.9016 263.304 94.4995H256.92C256.865 93.5045 256.436 92.6893 255.635 92.0536C254.861 91.3904 253.825 91.0587 252.526 91.0587C251.393 91.0587 250.481 91.3489 249.79 91.9293C249.127 92.5096 248.795 93.3525 248.795 94.458C248.795 95.2318 249.044 95.8813 249.541 96.4064C250.066 96.9038 250.702 97.3184 251.448 97.65C252.222 97.954 253.3 98.3133 254.681 98.7278C256.561 99.2805 258.095 99.8333 259.283 100.386C260.471 100.939 261.494 101.768 262.351 102.873C263.207 103.979 263.636 105.43 263.636 107.226C263.636 108.774 263.235 110.211 262.433 111.537C261.632 112.864 260.457 113.928 258.91 114.729C257.362 115.503 255.524 115.89 253.396 115.89Z" fill="white"/>
<path d="M275.424 97.4013V108.511C275.424 109.285 275.604 109.851 275.963 110.211C276.35 110.542 276.986 110.708 277.87 110.708H280.565V115.6H276.917C272.025 115.6 269.579 113.223 269.579 108.47V97.4013H266.843V92.634H269.579V86.9547H275.424V92.634H280.565V97.4013H275.424Z" fill="white"/>
<path d="M283.247 104.034C283.247 101.713 283.703 99.6536 284.615 97.8573C285.554 96.0609 286.812 94.6791 288.387 93.7118C289.99 92.7445 291.772 92.2609 293.735 92.2609C295.448 92.2609 296.94 92.6064 298.212 93.2973C299.511 93.9882 300.547 94.8587 301.321 95.9089V92.634H307.166V115.6H301.321V112.242C300.575 113.32 299.538 114.218 298.212 114.937C296.913 115.627 295.407 115.973 293.693 115.973C291.759 115.973 289.99 115.475 288.387 114.481C286.812 113.486 285.554 112.09 284.615 110.294C283.703 108.47 283.247 106.383 283.247 104.034ZM301.321 104.117C301.321 102.707 301.044 101.505 300.492 100.51C299.939 99.4878 299.193 98.714 298.253 98.1889C297.313 97.6362 296.305 97.3598 295.227 97.3598C294.149 97.3598 293.154 97.6224 292.242 98.1475C291.33 98.6725 290.584 99.4464 290.004 100.469C289.451 101.464 289.175 102.652 289.175 104.034C289.175 105.416 289.451 106.632 290.004 107.682C290.584 108.705 291.33 109.492 292.242 110.045C293.182 110.598 294.177 110.874 295.227 110.874C296.305 110.874 297.313 110.611 298.253 110.086C299.193 109.534 299.939 108.76 300.492 107.765C301.044 106.742 301.321 105.526 301.321 104.117Z" fill="white"/>
<path d="M319.591 97.4013V108.511C319.591 109.285 319.771 109.851 320.13 110.211C320.517 110.542 321.153 110.708 322.037 110.708H324.732V115.6H321.084C316.192 115.6 313.746 113.223 313.746 108.47V97.4013H311.01V92.634H313.746V86.9547H319.591V92.634H324.732V97.4013H319.591Z" fill="white"/>
<path d="M350.587 92.634V115.6H344.741V112.698C343.995 113.693 343.014 114.481 341.798 115.061C340.61 115.614 339.311 115.89 337.901 115.89C336.105 115.89 334.516 115.517 333.134 114.771C331.752 113.997 330.661 112.878 329.859 111.413C329.085 109.921 328.699 108.152 328.699 106.107V92.634H334.502V105.278C334.502 107.102 334.958 108.511 335.87 109.506C336.782 110.473 338.026 110.957 339.601 110.957C341.204 110.957 342.461 110.473 343.373 109.506C344.285 108.511 344.741 107.102 344.741 105.278V92.634H350.587Z" fill="white"/>
<path d="M365.101 115.973C363.222 115.973 361.536 115.641 360.044 114.978C358.551 114.287 357.363 113.361 356.479 112.201C355.622 111.04 355.152 109.755 355.069 108.345H360.914C361.025 109.23 361.453 109.962 362.199 110.542C362.973 111.123 363.927 111.413 365.06 111.413C366.165 111.413 367.022 111.192 367.63 110.75C368.265 110.307 368.583 109.741 368.583 109.05C368.583 108.304 368.196 107.751 367.423 107.392C366.676 107.005 365.474 106.59 363.816 106.148C362.103 105.734 360.693 105.305 359.588 104.863C358.51 104.421 357.57 103.744 356.769 102.832C355.995 101.92 355.608 100.69 355.608 99.1424C355.608 97.8711 355.967 96.7104 356.686 95.6602C357.432 94.61 358.482 93.7809 359.836 93.1729C361.218 92.5649 362.835 92.2609 364.687 92.2609C367.423 92.2609 369.606 92.9518 371.236 94.3336C372.867 95.6878 373.765 97.5256 373.931 99.8471H368.376C368.293 98.9351 367.906 98.2165 367.215 97.6915C366.552 97.1387 365.654 96.8624 364.521 96.8624C363.471 96.8624 362.655 97.0558 362.075 97.4427C361.522 97.8296 361.246 98.3685 361.246 99.0595C361.246 99.8333 361.633 100.427 362.407 100.842C363.18 101.229 364.383 101.63 366.013 102.044C367.671 102.459 369.039 102.887 370.117 103.329C371.195 103.771 372.121 104.462 372.895 105.402C373.696 106.314 374.111 107.53 374.138 109.05C374.138 110.377 373.765 111.565 373.019 112.615C372.3 113.665 371.25 114.494 369.868 115.102C368.514 115.683 366.925 115.973 365.101 115.973Z" fill="white"/>
<path d="M409.88 95.6187C409.88 97.1664 409.507 98.6173 408.761 99.9715C408.043 101.326 406.896 102.417 405.32 103.246C403.773 104.075 401.811 104.49 399.434 104.49H394.584V115.6H388.78V86.6645H399.434C401.672 86.6645 403.579 87.0515 405.155 87.8253C406.73 88.5991 407.904 89.6631 408.678 91.0173C409.48 92.3715 409.88 93.9053 409.88 95.6187ZM399.185 99.8056C400.788 99.8056 401.976 99.4464 402.75 98.7278C403.524 97.9816 403.911 96.9453 403.911 95.6187C403.911 92.7998 402.336 91.3904 399.185 91.3904H394.584V99.8056H399.185Z" fill="white"/>
<path d="M412.509 104.034C412.509 101.713 412.965 99.6536 413.877 97.8573C414.816 96.0609 416.074 94.6791 417.649 93.7118C419.252 92.7445 421.034 92.2609 422.997 92.2609C424.71 92.2609 426.202 92.6064 427.474 93.2973C428.773 93.9882 429.809 94.8587 430.583 95.9089V92.634H436.428V115.6H430.583V112.242C429.837 113.32 428.8 114.218 427.474 114.937C426.175 115.627 424.669 115.973 422.955 115.973C421.021 115.973 419.252 115.475 417.649 114.481C416.074 113.486 414.816 112.09 413.877 110.294C412.965 108.47 412.509 106.383 412.509 104.034ZM430.583 104.117C430.583 102.707 430.306 101.505 429.754 100.51C429.201 99.4878 428.455 98.714 427.515 98.1889C426.575 97.6362 425.567 97.3598 424.489 97.3598C423.411 97.3598 422.416 97.6224 421.504 98.1475C420.592 98.6725 419.846 99.4464 419.266 100.469C418.713 101.464 418.437 102.652 418.437 104.034C418.437 105.416 418.713 106.632 419.266 107.682C419.846 108.705 420.592 109.492 421.504 110.045C422.444 110.598 423.439 110.874 424.489 110.874C425.567 110.874 426.575 110.611 427.515 110.086C428.455 109.534 429.201 108.76 429.754 107.765C430.306 106.742 430.583 105.526 430.583 104.117Z" fill="white"/>
<path d="M451.092 92.2609C452.805 92.2609 454.311 92.6064 455.61 93.2973C456.909 93.9605 457.932 94.8311 458.678 95.9089V92.634H464.523V115.766C464.523 117.894 464.095 119.787 463.238 121.445C462.381 123.131 461.096 124.457 459.383 125.425C457.669 126.419 455.596 126.917 453.164 126.917C449.903 126.917 447.223 126.157 445.122 124.637C443.05 123.117 441.875 121.044 441.599 118.419H447.361C447.665 119.469 448.314 120.298 449.309 120.906C450.332 121.542 451.562 121.859 452.999 121.859C454.684 121.859 456.052 121.348 457.103 120.326C458.153 119.331 458.678 117.811 458.678 115.766V112.201C457.932 113.278 456.895 114.177 455.569 114.895C454.27 115.614 452.778 115.973 451.092 115.973C449.157 115.973 447.388 115.475 445.786 114.481C444.183 113.486 442.911 112.09 441.972 110.294C441.06 108.47 440.604 106.383 440.604 104.034C440.604 101.713 441.06 99.6536 441.972 97.8573C442.911 96.0609 444.169 94.6791 445.744 93.7118C447.347 92.7445 449.13 92.2609 451.092 92.2609ZM458.678 104.117C458.678 102.707 458.402 101.505 457.849 100.51C457.296 99.4878 456.55 98.714 455.61 98.1889C454.671 97.6362 453.662 97.3598 452.584 97.3598C451.506 97.3598 450.511 97.6224 449.599 98.1475C448.687 98.6725 447.941 99.4464 447.361 100.469C446.808 101.464 446.532 102.652 446.532 104.034C446.532 105.416 446.808 106.632 447.361 107.682C447.941 108.705 448.687 109.492 449.599 110.045C450.539 110.598 451.534 110.874 452.584 110.874C453.662 110.874 454.671 110.611 455.61 110.086C456.55 109.534 457.296 108.76 457.849 107.765C458.402 106.742 458.678 105.526 458.678 104.117Z" fill="white"/>
<path d="M491.54 103.619C491.54 104.449 491.485 105.195 491.375 105.858H474.585C474.724 107.516 475.304 108.815 476.327 109.755C477.349 110.694 478.607 111.164 480.099 111.164C482.255 111.164 483.788 110.238 484.7 108.387H490.96C490.297 110.598 489.025 112.422 487.146 113.859C485.267 115.268 482.959 115.973 480.223 115.973C478.012 115.973 476.023 115.489 474.254 114.522C472.513 113.527 471.145 112.131 470.15 110.335C469.183 108.539 468.699 106.466 468.699 104.117C468.699 101.74 469.183 99.6536 470.15 97.8573C471.117 96.0609 472.471 94.6791 474.212 93.7118C475.953 92.7445 477.957 92.2609 480.223 92.2609C482.407 92.2609 484.355 92.7307 486.068 93.6704C487.809 94.61 489.15 95.9504 490.089 97.6915C491.057 99.4049 491.54 101.381 491.54 103.619ZM485.529 101.961C485.502 100.469 484.963 99.2805 483.913 98.3962C482.863 97.4842 481.577 97.0282 480.057 97.0282C478.62 97.0282 477.404 97.4704 476.409 98.3547C475.442 99.2115 474.848 100.414 474.627 101.961H485.529Z" fill="white"/>
<circle cx="196.5" cy="100.5" r="28.5" fill="white" fill-opacity="0.1"/>
<circle cx="196.5" cy="100.5" r="12.9545" fill="white"/>
</svg>
